<svg width="326" height="326" viewBox="0 0 326 326" fill="none" xmlns="http://www.w3.org/2000/svg">
<g filter="url(#filter0_d_1_651)">
<path d="M8 10C8 7.79086 9.79086 6 12 6H314C316.209 6 318 7.79086 318 10V312C318 314.209 316.209 316 314 316H12C9.79086 316 8 314.209 8 312V10Z" fill="white"/>
<path d="M42 44L33 34.9998L42 26" stroke="#000A18" stroke-width="2"/>
<path d="M100.469 41V29.72H104.373C105.642 29.72 106.714 29.9387 107.589 30.376C108.474 30.8133 109.141 31.4533 109.589 32.296C110.047 33.128 110.277 34.1467 110.277 35.352C110.277 36.5467 110.047 37.5653 109.589 38.408C109.141 39.2507 108.474 39.896 107.589 40.344C106.714 40.7813 105.642 41 104.373 41H100.469ZM102.133 39.608H104.277C105.727 39.608 106.805 39.256 107.509 38.552C108.223 37.848 108.581 36.7813 108.581 35.352C108.581 33.9227 108.223 32.8613 107.509 32.168C106.805 31.464 105.727 31.112 104.277 31.112H102.133V39.608ZM116.115 41.144C114.814 41.144 113.79 40.776 113.043 40.04C112.296 39.304 111.923 38.2853 111.923 36.984C111.923 36.1413 112.083 35.4053 112.403 34.776C112.734 34.1467 113.187 33.6613 113.763 33.32C114.35 32.968 115.027 32.792 115.795 32.792C116.552 32.792 117.187 32.952 117.699 33.272C118.211 33.592 118.6 34.0453 118.867 34.632C119.134 35.208 119.267 35.8907 119.267 36.68V37.192H113.187V36.264H118.163L117.891 36.472C117.891 35.672 117.71 35.0533 117.347 34.616C116.995 34.168 116.483 33.944 115.811 33.944C115.064 33.944 114.488 34.2053 114.083 34.728C113.678 35.24 113.475 35.9493 113.475 36.856V37.016C113.475 37.9653 113.704 38.68 114.163 39.16C114.632 39.64 115.294 39.88 116.147 39.88C116.616 39.88 117.054 39.816 117.459 39.688C117.875 39.5493 118.27 39.3253 118.643 39.016L119.171 40.12C118.798 40.4507 118.344 40.7067 117.811 40.888C117.278 41.0587 116.712 41.144 116.115 41.144ZM124.658 41.144C123.847 41.144 123.138 40.9787 122.53 40.648C121.932 40.3067 121.468 39.8213 121.138 39.192C120.818 38.552 120.658 37.7947 120.658 36.92C120.658 36.056 120.823 35.3147 121.154 34.696C121.484 34.0773 121.948 33.608 122.546 33.288C123.143 32.9573 123.847 32.792 124.658 32.792C125.18 32.792 125.687 32.8827 126.178 33.064C126.668 33.2347 127.074 33.48 127.394 33.8L126.866 34.936C126.567 34.648 126.231 34.4347 125.858 34.296C125.484 34.1467 125.122 34.072 124.77 34.072C124.002 34.072 123.399 34.3173 122.962 34.808C122.524 35.2987 122.306 36.008 122.306 36.936C122.306 37.8747 122.524 38.5947 122.962 39.096C123.399 39.5973 124.002 39.848 124.77 39.848C125.111 39.848 125.468 39.784 125.842 39.656C126.215 39.5173 126.556 39.2987 126.866 39L127.394 40.136C127.063 40.456 126.647 40.7067 126.146 40.888C125.655 41.0587 125.159 41.144 124.658 41.144ZM132.678 41.144C131.376 41.144 130.352 40.776 129.606 40.04C128.859 39.304 128.486 38.2853 128.486 36.984C128.486 36.1413 128.646 35.4053 128.966 34.776C129.296 34.1467 129.75 33.6613 130.326 33.32C130.912 32.968 131.59 32.792 132.358 32.792C133.115 32.792 133.75 32.952 134.262 33.272C134.774 33.592 135.163 34.0453 135.43 34.632C135.696 35.208 135.83 35.8907 135.83 36.68V37.192H129.75V36.264H134.726L134.454 36.472C134.454 35.672 134.272 35.0533 133.91 34.616C133.558 34.168 133.046 33.944 132.374 33.944C131.627 33.944 131.051 34.2053 130.646 34.728C130.24 35.24 130.038 35.9493 130.038 36.856V37.016C130.038 37.9653 130.267 38.68 130.726 39.16C131.195 39.64 131.856 39.88 132.71 39.88C133.179 39.88 133.616 39.816 134.022 39.688C134.438 39.5493 134.832 39.3253 135.206 39.016L135.734 40.12C135.36 40.4507 134.907 40.7067 134.374 40.888C133.84 41.0587 133.275 41.144 132.678 41.144ZM137.684 41V34.872C137.684 34.5627 137.668 34.248 137.636 33.928C137.615 33.5973 137.588 33.2667 137.556 32.936H139.124L139.268 34.632H139.076C139.3 34.0453 139.641 33.592 140.1 33.272C140.569 32.952 141.129 32.792 141.78 32.792C142.441 32.792 142.98 32.952 143.396 33.272C143.823 33.5813 144.116 34.0613 144.276 34.712H144.02C144.233 34.1253 144.596 33.6613 145.108 33.32C145.62 32.968 146.212 32.792 146.884 32.792C147.78 32.792 148.452 33.0533 148.9 33.576C149.348 34.0987 149.572 34.9093 149.572 36.008V41H147.956V36.088C147.956 35.384 147.833 34.8773 147.588 34.568C147.353 34.248 146.969 34.088 146.436 34.088C145.817 34.088 145.327 34.3013 144.964 34.728C144.601 35.1547 144.42 35.7307 144.42 36.456V41H142.804V36.088C142.804 35.384 142.681 34.8773 142.436 34.568C142.201 34.248 141.817 34.088 141.284 34.088C140.665 34.088 140.18 34.3013 139.828 34.728C139.476 35.1547 139.3 35.7307 139.3 36.456V41H137.684ZM156.191 41.144C155.487 41.144 154.874 40.968 154.351 40.616C153.828 40.264 153.482 39.784 153.311 39.176H153.487V41H151.887V29.224H153.503V34.728H153.311C153.492 34.1307 153.839 33.6613 154.351 33.32C154.874 32.968 155.487 32.792 156.191 32.792C156.906 32.792 157.53 32.9627 158.063 33.304C158.596 33.6347 159.007 34.1147 159.295 34.744C159.594 35.3627 159.743 36.1093 159.743 36.984C159.743 37.848 159.594 38.5947 159.295 39.224C159.007 39.8427 158.591 40.3173 158.047 40.648C157.514 40.9787 156.895 41.144 156.191 41.144ZM155.791 39.88C156.484 39.88 157.044 39.64 157.471 39.16C157.898 38.6693 158.111 37.944 158.111 36.984C158.111 36.0133 157.898 35.288 157.471 34.808C157.044 34.3173 156.484 34.072 155.791 34.072C155.087 34.072 154.522 34.3173 154.095 34.808C153.679 35.288 153.471 36.008 153.471 36.968C153.471 37.928 153.679 38.6533 154.095 39.144C154.522 39.6347 155.087 39.88 155.791 39.88ZM165.365 41.144C164.064 41.144 163.04 40.776 162.293 40.04C161.546 39.304 161.173 38.2853 161.173 36.984C161.173 36.1413 161.333 35.4053 161.653 34.776C161.984 34.1467 162.437 33.6613 163.013 33.32C163.6 32.968 164.277 32.792 165.045 32.792C165.802 32.792 166.437 32.952 166.949 33.272C167.461 33.592 167.85 34.0453 168.117 34.632C168.384 35.208 168.517 35.8907 168.517 36.68V37.192H162.437V36.264H167.413L167.141 36.472C167.141 35.672 166.96 35.0533 166.597 34.616C166.245 34.168 165.733 33.944 165.061 33.944C164.314 33.944 163.738 34.2053 163.333 34.728C162.928 35.24 162.725 35.9493 162.725 36.856V37.016C162.725 37.9653 162.954 38.68 163.413 39.16C163.882 39.64 164.544 39.88 165.397 39.88C165.866 39.88 166.304 39.816 166.709 39.688C167.125 39.5493 167.52 39.3253 167.893 39.016L168.421 40.12C168.048 40.4507 167.594 40.7067 167.061 40.888C166.528 41.0587 165.962 41.144 165.365 41.144ZM170.34 41V34.936C170.34 34.6053 170.329 34.2747 170.308 33.944C170.297 33.6027 170.276 33.2667 170.243 32.936H171.812L171.988 35.016H171.732C171.838 34.5147 172.02 34.0987 172.276 33.768C172.532 33.4373 172.841 33.192 173.204 33.032C173.577 32.872 173.966 32.792 174.372 32.792C174.542 32.792 174.686 32.8027 174.804 32.824C174.921 32.8347 175.038 32.856 175.156 32.888L175.14 34.328C174.958 34.2533 174.798 34.2107 174.66 34.2C174.532 34.1787 174.372 34.168 174.18 34.168C173.71 34.168 173.31 34.2747 172.98 34.488C172.649 34.6907 172.398 34.968 172.228 35.32C172.057 35.672 171.972 36.0507 171.972 36.456V41H170.34ZM180.812 41V39.768L184.684 35.72C185.186 35.1973 185.559 34.7067 185.804 34.248C186.05 33.7893 186.172 33.3147 186.172 32.824C186.172 32.216 185.98 31.7573 185.596 31.448C185.223 31.1387 184.679 30.984 183.964 30.984C183.399 30.984 182.866 31.0853 182.364 31.288C181.874 31.4907 181.399 31.8 180.94 32.216L180.364 30.952C180.812 30.536 181.367 30.2053 182.028 29.96C182.7 29.704 183.41 29.576 184.156 29.576C185.33 29.576 186.231 29.8427 186.86 30.376C187.5 30.9093 187.82 31.672 187.82 32.664C187.82 33.368 187.65 34.0453 187.308 34.696C186.967 35.336 186.455 35.9973 185.772 36.68L182.428 40.056V39.608H188.284V41H180.812ZM193.878 41.144C192.577 41.144 191.574 40.648 190.87 39.656C190.177 38.6533 189.83 37.2187 189.83 35.352C189.83 33.4533 190.177 32.0187 190.87 31.048C191.574 30.0667 192.577 29.576 193.878 29.576C195.19 29.576 196.193 30.0667 196.886 31.048C197.579 32.0187 197.926 33.448 197.926 35.336C197.926 37.2133 197.574 38.6533 196.87 39.656C196.177 40.648 195.179 41.144 193.878 41.144ZM193.878 39.752C194.699 39.752 195.307 39.3947 195.702 38.68C196.107 37.9653 196.31 36.8507 196.31 35.336C196.31 33.8107 196.107 32.7013 195.702 32.008C195.307 31.304 194.699 30.952 193.878 30.952C193.067 30.952 192.459 31.304 192.054 32.008C191.649 32.7013 191.446 33.8053 191.446 35.32C191.446 36.8453 191.649 37.9653 192.054 38.68C192.47 39.3947 193.078 39.752 193.878 39.752ZM200 41V39.768L203.872 35.72C204.373 35.1973 204.747 34.7067 204.992 34.248C205.237 33.7893 205.36 33.3147 205.36 32.824C205.36 32.216 205.168 31.7573 204.784 31.448C204.411 31.1387 203.867 30.984 203.152 30.984C202.587 30.984 202.053 31.0853 201.552 31.288C201.061 31.4907 200.587 31.8 200.128 32.216L199.552 30.952C200 30.536 200.555 30.2053 201.216 29.96C201.888 29.704 202.597 29.576 203.344 29.576C204.517 29.576 205.419 29.8427 206.048 30.376C206.688 30.9093 207.008 31.672 207.008 32.664C207.008 33.368 206.837 34.0453 206.496 34.696C206.155 35.336 205.643 35.9973 204.96 36.68L201.616 40.056V39.608H207.472V41H200ZM213.066 41.144C211.764 41.144 210.762 40.648 210.058 39.656C209.364 38.6533 209.018 37.2187 209.018 35.352C209.018 33.4533 209.364 32.0187 210.058 31.048C210.762 30.0667 211.764 29.576 213.066 29.576C214.378 29.576 215.38 30.0667 216.074 31.048C216.767 32.0187 217.114 33.448 217.114 35.336C217.114 37.2133 216.762 38.6533 216.058 39.656C215.364 40.648 214.367 41.144 213.066 41.144ZM213.066 39.752C213.887 39.752 214.495 39.3947 214.89 38.68C215.295 37.9653 215.498 36.8507 215.498 35.336C215.498 33.8107 215.295 32.7013 214.89 32.008C214.495 31.304 213.887 30.952 213.066 30.952C212.255 30.952 211.647 31.304 211.242 32.008C210.836 32.7013 210.634 33.8053 210.634 35.32C210.634 36.8453 210.836 37.9653 211.242 38.68C211.658 39.3947 212.266 39.752 213.066 39.752Z" fill="black"/>
<path d="M276 44L285 34.9998L276 26" stroke="#000A18" stroke-width="2"/>
<path d="M32.8544 82.14C32.061 82.14 31.3284 82.042 30.6564 81.846C29.9937 81.6407 29.4244 81.3607 28.9484 81.006L29.5084 79.592C29.8257 79.816 30.157 80.0073 30.5024 80.166C30.8477 80.3153 31.2164 80.432 31.6084 80.516C32.0004 80.5907 32.4157 80.628 32.8544 80.628C33.5917 80.628 34.1237 80.5067 34.4504 80.264C34.777 80.0213 34.9404 79.704 34.9404 79.312C34.9404 78.9667 34.8284 78.7053 34.6044 78.528C34.3804 78.3413 33.979 78.1873 33.4004 78.066L31.8184 77.744C30.913 77.5573 30.2364 77.2447 29.7884 76.806C29.3404 76.3673 29.1164 75.7793 29.1164 75.042C29.1164 74.426 29.2797 73.8893 29.6064 73.432C29.933 72.9747 30.3904 72.62 30.9784 72.368C31.5664 72.116 32.2524 71.99 33.0364 71.99C33.7364 71.99 34.385 72.0927 34.9824 72.298C35.5797 72.494 36.079 72.7787 36.4804 73.152L35.9204 74.496C35.519 74.16 35.0804 73.9127 34.6044 73.754C34.1284 73.586 33.5964 73.502 33.0084 73.502C32.3457 73.502 31.8277 73.6327 31.4544 73.894C31.0904 74.146 30.9084 74.496 30.9084 74.944C30.9084 75.2893 31.0204 75.5647 31.2444 75.77C31.4777 75.9753 31.8697 76.134 32.4204 76.246L33.9884 76.554C34.9217 76.7407 35.6124 77.0487 36.0604 77.478C36.5084 77.898 36.7324 78.4673 36.7324 79.186C36.7324 79.774 36.5737 80.292 36.2564 80.74C35.939 81.1787 35.491 81.524 34.9124 81.776C34.3337 82.0187 33.6477 82.14 32.8544 82.14ZM40.8418 82.14C39.9738 82.14 39.3251 81.902 38.8958 81.426C38.4665 80.95 38.2518 80.222 38.2518 79.242V74.93H40.0018V79.228C40.0018 79.7507 40.1091 80.138 40.3238 80.39C40.5385 80.6327 40.8651 80.754 41.3038 80.754C41.7985 80.754 42.1998 80.586 42.5078 80.25C42.8251 79.914 42.9838 79.4707 42.9838 78.92V74.93H44.7338V82H43.0258V80.558H43.2218C43.0165 81.062 42.7038 81.454 42.2838 81.734C41.8731 82.0047 41.3925 82.14 40.8418 82.14Z" fill="#80848B"/>
<path d="M69.8726 82V72.13H71.4546L75.0806 80.292H74.6466L78.2726 72.13H79.8406V82H78.2026V74.678H78.7066L75.3886 82H74.3106L70.9926 74.678H71.5106V82H69.8726ZM85.0922 82.14C84.3642 82.14 83.7342 81.9907 83.2022 81.692C82.6702 81.3933 82.2549 80.9687 81.9562 80.418C81.6669 79.8673 81.5222 79.214 81.5222 78.458C81.5222 77.702 81.6669 77.0533 81.9562 76.512C82.2549 75.9613 82.6702 75.5367 83.2022 75.238C83.7342 74.9393 84.3642 74.79 85.0922 74.79C85.8202 74.79 86.4502 74.9393 86.9822 75.238C87.5236 75.5367 87.9389 75.9613 88.2282 76.512C88.5269 77.0533 88.6762 77.702 88.6762 78.458C88.6762 79.214 88.5269 79.8673 88.2282 80.418C87.9389 80.9687 87.5236 81.3933 86.9822 81.692C86.4502 81.9907 85.8202 82.14 85.0922 82.14ZM85.0922 80.796C85.6429 80.796 86.0816 80.6047 86.4082 80.222C86.7349 79.83 86.8982 79.242 86.8982 78.458C86.8982 77.674 86.7349 77.0907 86.4082 76.708C86.0816 76.3253 85.6429 76.134 85.0922 76.134C84.5416 76.134 84.1029 76.3253 83.7762 76.708C83.4496 77.0907 83.2862 77.674 83.2862 78.458C83.2862 79.242 83.4496 79.83 83.7762 80.222C84.1029 80.6047 84.5416 80.796 85.0922 80.796Z" fill="#80848B"/>
<path d="M116.438 82V73.614H113.176V72.13H121.506V73.614H118.244V82H116.438ZM124.138 82.14C123.27 82.14 122.621 81.902 122.192 81.426C121.762 80.95 121.548 80.222 121.548 79.242V74.93H123.298V79.228C123.298 79.7507 123.405 80.138 123.62 80.39C123.834 80.6327 124.161 80.754 124.6 80.754C125.094 80.754 125.496 80.586 125.804 80.25C126.121 79.914 126.28 79.4707 126.28 78.92V74.93H128.03V82H126.322V80.558H126.518C126.312 81.062 126 81.454 125.58 81.734C125.169 82.0047 124.688 82.14 124.138 82.14Z" fill="#80848B"/>
<path d="M155.591 82L152.105 72.13H153.981L156.669 80.222H156.109L159.007 72.13H160.351L163.039 80.222H162.521L165.335 72.13H167.099L163.585 82H162.087L159.483 74.412H159.791L157.089 82H155.591ZM170.943 82.14C169.758 82.14 168.829 81.8133 168.157 81.16C167.485 80.5067 167.149 79.6107 167.149 78.472C167.149 77.7347 167.294 77.0907 167.583 76.54C167.873 75.9893 168.274 75.56 168.787 75.252C169.31 74.944 169.917 74.79 170.607 74.79C171.289 74.79 171.858 74.9347 172.315 75.224C172.773 75.5133 173.118 75.9193 173.351 76.442C173.594 76.9647 173.715 77.576 173.715 78.276V78.738H168.563V77.814H172.469L172.231 78.01C172.231 77.3567 172.091 76.8573 171.811 76.512C171.541 76.1667 171.144 75.994 170.621 75.994C170.043 75.994 169.595 76.1993 169.277 76.61C168.969 77.0207 168.815 77.5947 168.815 78.332V78.514C168.815 79.2793 169.002 79.8533 169.375 80.236C169.758 80.6093 170.295 80.796 170.985 80.796C171.387 80.796 171.76 80.7447 172.105 80.642C172.46 80.53 172.796 80.3527 173.113 80.11L173.631 81.286C173.295 81.5567 172.894 81.7667 172.427 81.916C171.961 82.0653 171.466 82.14 170.943 82.14Z" fill="#80848B"/>
<path d="M199.864 82V73.614H196.602V72.13H204.932V73.614H201.67V82H199.864ZM206.068 82V71.696H207.818V76.344H207.622C207.837 75.84 208.168 75.4573 208.616 75.196C209.064 74.9253 209.578 74.79 210.156 74.79C210.996 74.79 211.622 75.028 212.032 75.504C212.443 75.9707 212.648 76.6847 212.648 77.646V82H210.898V77.73C210.898 77.1793 210.791 76.7827 210.576 76.54C210.371 76.288 210.04 76.162 209.582 76.162C209.05 76.162 208.621 76.33 208.294 76.666C207.977 76.9927 207.818 77.4313 207.818 77.982V82H206.068Z" fill="#80848B"/>
<path d="M241.406 82V72.13H247.916V73.544H243.212V76.344H247.594V77.758H243.212V82H241.406ZM249.127 82V76.736C249.127 76.4373 249.118 76.134 249.099 75.826C249.09 75.518 249.067 75.2193 249.029 74.93H250.723L250.919 76.862H250.639C250.733 76.3953 250.887 76.008 251.101 75.7C251.325 75.392 251.596 75.1633 251.913 75.014C252.231 74.8647 252.576 74.79 252.949 74.79C253.117 74.79 253.253 74.7993 253.355 74.818C253.458 74.8273 253.561 74.8507 253.663 74.888L253.649 76.428C253.472 76.3533 253.318 76.3067 253.187 76.288C253.066 76.2693 252.912 76.26 252.725 76.26C252.324 76.26 251.983 76.344 251.703 76.512C251.433 76.68 251.227 76.9133 251.087 77.212C250.957 77.5107 250.891 77.8513 250.891 78.234V82H249.127Z" fill="#80848B"/>
<path d="M284.683 82.14C283.89 82.14 283.157 82.042 282.485 81.846C281.823 81.6407 281.253 81.3607 280.777 81.006L281.337 79.592C281.655 79.816 281.986 80.0073 282.331 80.166C282.677 80.3153 283.045 80.432 283.437 80.516C283.829 80.5907 284.245 80.628 284.683 80.628C285.421 80.628 285.953 80.5067 286.279 80.264C286.606 80.0213 286.769 79.704 286.769 79.312C286.769 78.9667 286.657 78.7053 286.433 78.528C286.209 78.3413 285.808 78.1873 285.229 78.066L283.647 77.744C282.742 77.5573 282.065 77.2447 281.617 76.806C281.169 76.3673 280.945 75.7793 280.945 75.042C280.945 74.426 281.109 73.8893 281.435 73.432C281.762 72.9747 282.219 72.62 282.807 72.368C283.395 72.116 284.081 71.99 284.865 71.99C285.565 71.99 286.214 72.0927 286.811 72.298C287.409 72.494 287.908 72.7787 288.309 73.152L287.749 74.496C287.348 74.16 286.909 73.9127 286.433 73.754C285.957 73.586 285.425 73.502 284.837 73.502C284.175 73.502 283.657 73.6327 283.283 73.894C282.919 74.146 282.737 74.496 282.737 74.944C282.737 75.2893 282.849 75.5647 283.073 75.77C283.307 75.9753 283.699 76.134 284.249 76.246L285.817 76.554C286.751 76.7407 287.441 77.0487 287.889 77.478C288.337 77.898 288.561 78.4673 288.561 79.186C288.561 79.774 288.403 80.292 288.085 80.74C287.768 81.1787 287.32 81.524 286.741 81.776C286.163 82.0187 285.477 82.14 284.683 82.14ZM292.853 82.14C292.237 82.14 291.696 81.9953 291.229 81.706C290.762 81.4073 290.398 80.9827 290.137 80.432C289.876 79.8813 289.745 79.2233 289.745 78.458C289.745 77.6927 289.876 77.0393 290.137 76.498C290.398 75.9473 290.762 75.5273 291.229 75.238C291.696 74.9393 292.237 74.79 292.853 74.79C293.45 74.79 293.973 74.9393 294.421 75.238C294.878 75.5273 295.182 75.9193 295.331 76.414H295.177L295.331 74.93H297.011C296.983 75.2193 296.955 75.5133 296.927 75.812C296.908 76.1107 296.899 76.4047 296.899 76.694V82H295.163L295.149 80.544H295.317C295.168 81.0293 294.864 81.4167 294.407 81.706C293.95 81.9953 293.432 82.14 292.853 82.14ZM293.343 80.796C293.894 80.796 294.337 80.6047 294.673 80.222C295.009 79.83 295.177 79.242 295.177 78.458C295.177 77.674 295.009 77.0907 294.673 76.708C294.337 76.3253 293.894 76.134 293.343 76.134C292.792 76.134 292.349 76.3253 292.013 76.708C291.677 77.0907 291.509 77.674 291.509 78.458C291.509 79.242 291.672 79.83 291.999 80.222C292.335 80.6047 292.783 80.796 293.343 80.796Z" fill="#80848B"/>
<path d="M118.581 124V123.006H120.905V115.124H121.521L118.805 116.818V115.656L121.227 114.13H122.067V123.006H124.251V124H118.581Z" fill="#000A18"/>
<path d="M160.007 124V123.132L163.507 119.478C163.964 119.002 164.305 118.549 164.529 118.12C164.762 117.681 164.879 117.229 164.879 116.762C164.879 116.193 164.701 115.763 164.347 115.474C163.992 115.175 163.479 115.026 162.807 115.026C162.284 115.026 161.799 115.119 161.351 115.306C160.912 115.483 160.487 115.768 160.077 116.16L159.657 115.25C160.03 114.877 160.506 114.578 161.085 114.354C161.663 114.121 162.275 114.004 162.919 114.004C163.917 114.004 164.687 114.237 165.229 114.704C165.77 115.161 166.041 115.815 166.041 116.664C166.041 117.289 165.887 117.887 165.579 118.456C165.28 119.016 164.841 119.595 164.263 120.192L161.169 123.328V123.006H166.461V124H160.007Z" fill="#000A18"/>
<path d="M204.947 124.126C204.284 124.126 203.649 124.023 203.043 123.818C202.436 123.613 201.927 123.319 201.517 122.936L201.951 122.04C202.408 122.413 202.879 122.684 203.365 122.852C203.85 123.02 204.373 123.104 204.933 123.104C205.67 123.104 206.23 122.95 206.613 122.642C206.995 122.325 207.187 121.863 207.187 121.256C207.187 120.677 206.991 120.239 206.599 119.94C206.207 119.632 205.633 119.478 204.877 119.478H203.393V118.512H204.779C205.432 118.512 205.95 118.344 206.333 118.008C206.715 117.672 206.907 117.215 206.907 116.636C206.907 116.113 206.729 115.717 206.375 115.446C206.029 115.166 205.53 115.026 204.877 115.026C203.813 115.026 202.893 115.404 202.119 116.16L201.685 115.25C202.067 114.858 202.548 114.555 203.127 114.34C203.705 114.116 204.312 114.004 204.947 114.004C205.917 114.004 206.678 114.228 207.229 114.676C207.779 115.124 208.055 115.745 208.055 116.538C208.055 117.145 207.882 117.667 207.537 118.106C207.191 118.535 206.725 118.829 206.137 118.988V118.834C206.837 118.946 207.378 119.226 207.761 119.674C208.143 120.113 208.335 120.668 208.335 121.34C208.335 122.199 208.031 122.88 207.425 123.384C206.827 123.879 206.001 124.126 204.947 124.126Z" fill="#000A18"/>
<path d="M248.207 124V121.858H243.503V121.018L248.389 114.13H249.341V120.92H250.853V121.858H249.341V124H248.207ZM248.207 120.92V115.502H248.515L244.455 121.214V120.92H248.207Z" fill="#000A18"/>
<path d="M289.185 124.126C288.755 124.126 288.335 124.079 287.925 123.986C287.514 123.893 287.127 123.757 286.763 123.58C286.408 123.403 286.095 123.188 285.825 122.936L286.259 122.04C286.716 122.404 287.183 122.675 287.659 122.852C288.135 123.02 288.643 123.104 289.185 123.104C289.894 123.104 290.449 122.913 290.851 122.53C291.252 122.147 291.453 121.643 291.453 121.018C291.453 120.374 291.261 119.847 290.879 119.436C290.496 119.025 289.964 118.82 289.283 118.82C288.797 118.82 288.363 118.918 287.981 119.114C287.598 119.301 287.267 119.595 286.987 119.996H286.147V114.13H291.999V115.11H287.267V119.044H286.959C287.211 118.652 287.556 118.353 287.995 118.148C288.443 117.933 288.947 117.826 289.507 117.826C290.141 117.826 290.687 117.957 291.145 118.218C291.611 118.479 291.971 118.843 292.223 119.31C292.475 119.777 292.601 120.323 292.601 120.948C292.601 121.573 292.461 122.129 292.181 122.614C291.91 123.09 291.518 123.463 291.005 123.734C290.501 123.995 289.894 124.126 289.185 124.126Z" fill="#000A18"/>
<path d="M37.3247 166.126C36.1301 166.126 35.2061 165.706 34.5527 164.866C33.9087 164.017 33.5867 162.831 33.5867 161.31C33.5867 160.171 33.7501 159.21 34.0767 158.426C34.4034 157.633 34.8701 157.031 35.4767 156.62C36.0834 156.209 36.8161 156.004 37.6747 156.004C38.1881 156.004 38.7061 156.111 39.2287 156.326C39.7514 156.531 40.1807 156.821 40.5167 157.194L40.0967 158.09C39.7421 157.726 39.3547 157.46 38.9347 157.292C38.5147 157.115 38.0901 157.026 37.6607 157.026C36.7087 157.026 35.9761 157.367 35.4627 158.048C34.9587 158.72 34.7067 159.733 34.7067 161.086V162.388H34.5807C34.6461 161.856 34.8047 161.399 35.0567 161.016C35.3181 160.624 35.6587 160.325 36.0787 160.12C36.4987 159.915 36.9654 159.812 37.4787 159.812C38.0761 159.812 38.6034 159.943 39.0607 160.204C39.5181 160.465 39.8774 160.834 40.1387 161.31C40.4001 161.777 40.5307 162.313 40.5307 162.92C40.5307 163.536 40.3954 164.087 40.1247 164.572C39.8541 165.057 39.4761 165.44 38.9907 165.72C38.5054 165.991 37.9501 166.126 37.3247 166.126ZM37.2407 165.146C37.6701 165.146 38.0481 165.057 38.3747 164.88C38.7107 164.693 38.9674 164.437 39.1447 164.11C39.3314 163.774 39.4247 163.391 39.4247 162.962C39.4247 162.533 39.3314 162.155 39.1447 161.828C38.9674 161.501 38.7107 161.245 38.3747 161.058C38.0481 160.871 37.6701 160.778 37.2407 160.778C36.8114 160.778 36.4334 160.871 36.1067 161.058C35.7801 161.245 35.5234 161.501 35.3367 161.828C35.1594 162.155 35.0707 162.533 35.0707 162.962C35.0707 163.391 35.1594 163.774 35.3367 164.11C35.5234 164.437 35.7801 164.693 36.1067 164.88C36.4334 165.057 36.8114 165.146 37.2407 165.146Z" fill="#000A18"/>
<path d="M76.3847 166L81.2427 156.62V157.124H75.7267V156.13H82.2927V156.998L77.6587 166H76.3847Z" fill="#000A18"/>
<path d="M121.003 166.126C119.873 166.126 119.001 165.888 118.385 165.412C117.769 164.927 117.461 164.25 117.461 163.382C117.461 162.701 117.671 162.136 118.091 161.688C118.511 161.231 119.066 160.955 119.757 160.862V161.072C119.131 160.941 118.632 160.657 118.259 160.218C117.885 159.77 117.699 159.243 117.699 158.636C117.699 157.805 117.993 157.161 118.581 156.704C119.169 156.237 119.976 156.004 121.003 156.004C122.039 156.004 122.851 156.237 123.439 156.704C124.027 157.161 124.321 157.805 124.321 158.636C124.321 159.243 124.143 159.77 123.789 160.218C123.443 160.666 122.958 160.946 122.333 161.058V160.862C123.014 160.955 123.555 161.231 123.957 161.688C124.358 162.136 124.559 162.701 124.559 163.382C124.559 164.25 124.251 164.927 123.635 165.412C123.019 165.888 122.141 166.126 121.003 166.126ZM121.003 165.174C121.824 165.174 122.435 165.02 122.837 164.712C123.247 164.404 123.453 163.937 123.453 163.312C123.453 162.696 123.247 162.239 122.837 161.94C122.435 161.632 121.824 161.478 121.003 161.478C120.181 161.478 119.565 161.632 119.155 161.94C118.753 162.239 118.553 162.696 118.553 163.312C118.553 163.937 118.758 164.404 119.169 164.712C119.579 165.02 120.191 165.174 121.003 165.174ZM121.003 160.526C121.712 160.526 122.253 160.367 122.627 160.05C123.009 159.733 123.201 159.294 123.201 158.734C123.201 158.174 123.009 157.74 122.627 157.432C122.253 157.115 121.712 156.956 121.003 156.956C120.293 156.956 119.747 157.115 119.365 157.432C118.991 157.74 118.805 158.174 118.805 158.734C118.805 159.294 118.991 159.733 119.365 160.05C119.747 160.367 120.293 160.526 121.003 160.526Z" fill="#000A18"/>
<path d="M162.345 166.126C161.831 166.126 161.313 166.019 160.791 165.804C160.268 165.58 159.834 165.291 159.489 164.936L159.923 164.026C160.277 164.39 160.665 164.661 161.085 164.838C161.505 165.015 161.929 165.104 162.359 165.104C163.301 165.104 164.025 164.768 164.529 164.096C165.042 163.415 165.299 162.397 165.299 161.044V159.742H165.439C165.383 160.265 165.219 160.722 164.949 161.114C164.687 161.506 164.347 161.805 163.927 162.01C163.516 162.215 163.054 162.318 162.541 162.318C161.943 162.318 161.411 162.187 160.945 161.926C160.487 161.665 160.128 161.296 159.867 160.82C159.605 160.344 159.475 159.807 159.475 159.21C159.475 158.585 159.61 158.034 159.881 157.558C160.161 157.073 160.539 156.695 161.015 156.424C161.5 156.144 162.055 156.004 162.681 156.004C163.885 156.004 164.809 156.424 165.453 157.264C166.106 158.104 166.433 159.289 166.433 160.82C166.433 161.949 166.269 162.911 165.943 163.704C165.616 164.497 165.149 165.099 164.543 165.51C163.936 165.921 163.203 166.126 162.345 166.126ZM162.779 161.352C163.208 161.352 163.586 161.259 163.913 161.072C164.239 160.885 164.491 160.629 164.669 160.302C164.855 159.975 164.949 159.597 164.949 159.168C164.949 158.729 164.855 158.347 164.669 158.02C164.491 157.693 164.239 157.437 163.913 157.25C163.586 157.063 163.208 156.97 162.779 156.97C162.349 156.97 161.967 157.063 161.631 157.25C161.304 157.437 161.047 157.693 160.861 158.02C160.683 158.347 160.595 158.729 160.595 159.168C160.595 159.597 160.683 159.975 160.861 160.302C161.047 160.629 161.304 160.885 161.631 161.072C161.967 161.259 162.349 161.352 162.779 161.352Z" fill="#000A18"/>
<path d="M198.383 166V165.006H200.707V157.124H201.323L198.607 158.818V157.656L201.029 156.13H201.869V165.006H204.053V166H198.383ZM209.2 166.126C208.08 166.126 207.221 165.692 206.624 164.824C206.027 163.956 205.728 162.701 205.728 161.058C205.728 159.406 206.027 158.151 206.624 157.292C207.221 156.433 208.08 156.004 209.2 156.004C210.329 156.004 211.188 156.433 211.776 157.292C212.373 158.151 212.672 159.401 212.672 161.044C212.672 162.696 212.373 163.956 211.776 164.824C211.179 165.692 210.32 166.126 209.2 166.126ZM209.2 165.118C209.984 165.118 210.567 164.787 210.95 164.124C211.333 163.461 211.524 162.435 211.524 161.044C211.524 159.644 211.333 158.622 210.95 157.978C210.567 157.325 209.984 156.998 209.2 156.998C208.425 156.998 207.842 157.325 207.45 157.978C207.067 158.631 206.876 159.653 206.876 161.044C206.876 162.435 207.067 163.461 207.45 164.124C207.842 164.787 208.425 165.118 209.2 165.118Z" fill="#000A18"/>
<path d="M240.383 166V165.006H242.707V157.124H243.323L240.607 158.818V157.656L243.029 156.13H243.869V165.006H246.053V166H240.383ZM248.778 166V165.006H251.102V157.124H251.718L249.002 158.818V157.656L251.424 156.13H252.264V165.006H254.448V166H248.778Z" fill="#000A18"/>
<path d="M282.383 166V165.006H284.707V157.124H285.323L282.607 158.818V157.656L285.029 156.13H285.869V165.006H288.053V166H282.383ZM290.204 166V165.132L293.704 161.478C294.161 161.002 294.502 160.549 294.726 160.12C294.959 159.681 295.076 159.229 295.076 158.762C295.076 158.193 294.899 157.763 294.544 157.474C294.189 157.175 293.676 157.026 293.004 157.026C292.481 157.026 291.996 157.119 291.548 157.306C291.109 157.483 290.685 157.768 290.274 158.16L289.854 157.25C290.227 156.877 290.703 156.578 291.282 156.354C291.861 156.121 292.472 156.004 293.116 156.004C294.115 156.004 294.885 156.237 295.426 156.704C295.967 157.161 296.238 157.815 296.238 158.664C296.238 159.289 296.084 159.887 295.776 160.456C295.477 161.016 295.039 161.595 294.46 162.192L291.366 165.328V165.006H296.658V166H290.204Z" fill="#000A18"/>
<path d="M30.3835 208V207.006H32.7075V199.124H33.3235L30.6075 200.818V199.656L33.0295 198.13H33.8695V207.006H36.0535V208H30.3835ZM41.144 208.126C40.4813 208.126 39.8467 208.023 39.24 207.818C38.6333 207.613 38.1247 207.319 37.714 206.936L38.148 206.04C38.6053 206.413 39.0767 206.684 39.562 206.852C40.0473 207.02 40.57 207.104 41.13 207.104C41.8673 207.104 42.4273 206.95 42.81 206.642C43.1927 206.325 43.384 205.863 43.384 205.256C43.384 204.677 43.188 204.239 42.796 203.94C42.404 203.632 41.83 203.478 41.074 203.478H39.59V202.512H40.976C41.6293 202.512 42.1473 202.344 42.53 202.008C42.9127 201.672 43.104 201.215 43.104 200.636C43.104 200.113 42.9267 199.717 42.572 199.446C42.2267 199.166 41.7273 199.026 41.074 199.026C40.01 199.026 39.0907 199.404 38.316 200.16L37.882 199.25C38.2647 198.858 38.7453 198.555 39.324 198.34C39.9027 198.116 40.5093 198.004 41.144 198.004C42.1147 198.004 42.8753 198.228 43.426 198.676C43.9767 199.124 44.252 199.745 44.252 200.538C44.252 201.145 44.0793 201.667 43.734 202.106C43.3887 202.535 42.922 202.829 42.334 202.988V202.834C43.034 202.946 43.5753 203.226 43.958 203.674C44.3407 204.113 44.532 204.668 44.532 205.34C44.532 206.199 44.2287 206.88 43.622 207.384C43.0247 207.879 42.1987 208.126 41.144 208.126Z" fill="#000A18"/>
<path d="M72.3835 208V207.006H74.7075V199.124H75.3235L72.6075 200.818V199.656L75.0295 198.13H75.8695V207.006H78.0535V208H72.3835ZM84.404 208V205.858H79.7V205.018L84.586 198.13H85.538V204.92H87.05V205.858H85.538V208H84.404ZM84.404 204.92V199.502H84.712L80.652 205.214V204.92H84.404Z" fill="#000A18"/>
<path d="M114.383 208V207.006H116.707V199.124H117.323L114.607 200.818V199.656L117.029 198.13H117.869V207.006H120.053V208H114.383ZM125.382 208.126C124.953 208.126 124.533 208.079 124.122 207.986C123.711 207.893 123.324 207.757 122.96 207.58C122.605 207.403 122.293 207.188 122.022 206.936L122.456 206.04C122.913 206.404 123.38 206.675 123.856 206.852C124.332 207.02 124.841 207.104 125.382 207.104C126.091 207.104 126.647 206.913 127.048 206.53C127.449 206.147 127.65 205.643 127.65 205.018C127.65 204.374 127.459 203.847 127.076 203.436C126.693 203.025 126.161 202.82 125.48 202.82C124.995 202.82 124.561 202.918 124.178 203.114C123.795 203.301 123.464 203.595 123.184 203.996H122.344V198.13H128.196V199.11H123.464V203.044H123.156C123.408 202.652 123.753 202.353 124.192 202.148C124.64 201.933 125.144 201.826 125.704 201.826C126.339 201.826 126.885 201.957 127.342 202.218C127.809 202.479 128.168 202.843 128.42 203.31C128.672 203.777 128.798 204.323 128.798 204.948C128.798 205.573 128.658 206.129 128.378 206.614C128.107 207.09 127.715 207.463 127.202 207.734C126.698 207.995 126.091 208.126 125.382 208.126Z" fill="#000A18"/>
<path d="M156.383 208V207.006H158.707V199.124H159.323L156.607 200.818V199.656L159.029 198.13H159.869V207.006H162.053V208H156.383ZM167.522 208.126C166.327 208.126 165.403 207.706 164.75 206.866C164.106 206.017 163.784 204.831 163.784 203.31C163.784 202.171 163.947 201.21 164.274 200.426C164.601 199.633 165.067 199.031 165.674 198.62C166.281 198.209 167.013 198.004 167.872 198.004C168.385 198.004 168.903 198.111 169.426 198.326C169.949 198.531 170.378 198.821 170.714 199.194L170.294 200.09C169.939 199.726 169.552 199.46 169.132 199.292C168.712 199.115 168.287 199.026 167.858 199.026C166.906 199.026 166.173 199.367 165.66 200.048C165.156 200.72 164.904 201.733 164.904 203.086V204.388H164.778C164.843 203.856 165.002 203.399 165.254 203.016C165.515 202.624 165.856 202.325 166.276 202.12C166.696 201.915 167.163 201.812 167.676 201.812C168.273 201.812 168.801 201.943 169.258 202.204C169.715 202.465 170.075 202.834 170.336 203.31C170.597 203.777 170.728 204.313 170.728 204.92C170.728 205.536 170.593 206.087 170.322 206.572C170.051 207.057 169.673 207.44 169.188 207.72C168.703 207.991 168.147 208.126 167.522 208.126ZM167.438 207.146C167.867 207.146 168.245 207.057 168.572 206.88C168.908 206.693 169.165 206.437 169.342 206.11C169.529 205.774 169.622 205.391 169.622 204.962C169.622 204.533 169.529 204.155 169.342 203.828C169.165 203.501 168.908 203.245 168.572 203.058C168.245 202.871 167.867 202.778 167.438 202.778C167.009 202.778 166.631 202.871 166.304 203.058C165.977 203.245 165.721 203.501 165.534 203.828C165.357 204.155 165.268 204.533 165.268 204.962C165.268 205.391 165.357 205.774 165.534 206.11C165.721 206.437 165.977 206.693 166.304 206.88C166.631 207.057 167.009 207.146 167.438 207.146Z" fill="#000A18"/>
<path d="M198.383 208V207.006H200.707V199.124H201.323L198.607 200.818V199.656L201.029 198.13H201.869V207.006H204.053V208H198.383ZM206.582 208L211.44 198.62V199.124H205.924V198.13H212.49V198.998L207.856 208H206.582Z" fill="#000A18"/>
<path d="M240.883 208V207.006H243.207V199.124H243.823L241.107 200.818V199.656L243.529 198.13H244.369V207.006H246.553V208H240.883ZM251.7 208.126C250.571 208.126 249.698 207.888 249.082 207.412C248.466 206.927 248.158 206.25 248.158 205.382C248.158 204.701 248.368 204.136 248.788 203.688C249.208 203.231 249.763 202.955 250.454 202.862V203.072C249.829 202.941 249.329 202.657 248.956 202.218C248.583 201.77 248.396 201.243 248.396 200.636C248.396 199.805 248.69 199.161 249.278 198.704C249.866 198.237 250.673 198.004 251.7 198.004C252.736 198.004 253.548 198.237 254.136 198.704C254.724 199.161 255.018 199.805 255.018 200.636C255.018 201.243 254.841 201.77 254.486 202.218C254.141 202.666 253.655 202.946 253.03 203.058V202.862C253.711 202.955 254.253 203.231 254.654 203.688C255.055 204.136 255.256 204.701 255.256 205.382C255.256 206.25 254.948 206.927 254.332 207.412C253.716 207.888 252.839 208.126 251.7 208.126ZM251.7 207.174C252.521 207.174 253.133 207.02 253.534 206.712C253.945 206.404 254.15 205.937 254.15 205.312C254.15 204.696 253.945 204.239 253.534 203.94C253.133 203.632 252.521 203.478 251.7 203.478C250.879 203.478 250.263 203.632 249.852 203.94C249.451 204.239 249.25 204.696 249.25 205.312C249.25 205.937 249.455 206.404 249.866 206.712C250.277 207.02 250.888 207.174 251.7 207.174ZM251.7 202.526C252.409 202.526 252.951 202.367 253.324 202.05C253.707 201.733 253.898 201.294 253.898 200.734C253.898 200.174 253.707 199.74 253.324 199.432C252.951 199.115 252.409 198.956 251.7 198.956C250.991 198.956 250.445 199.115 250.062 199.432C249.689 199.74 249.502 200.174 249.502 200.734C249.502 201.294 249.689 201.733 250.062 202.05C250.445 202.367 250.991 202.526 251.7 202.526Z" fill="#000A18"/>
<path d="M282.383 208V207.006H284.707V199.124H285.323L282.607 200.818V199.656L285.029 198.13H285.869V207.006H288.053V208H282.383ZM292.542 208.126C292.029 208.126 291.511 208.019 290.988 207.804C290.465 207.58 290.031 207.291 289.686 206.936L290.12 206.026C290.475 206.39 290.862 206.661 291.282 206.838C291.702 207.015 292.127 207.104 292.556 207.104C293.499 207.104 294.222 206.768 294.726 206.096C295.239 205.415 295.496 204.397 295.496 203.044V201.742H295.636C295.58 202.265 295.417 202.722 295.146 203.114C294.885 203.506 294.544 203.805 294.124 204.01C293.713 204.215 293.251 204.318 292.738 204.318C292.141 204.318 291.609 204.187 291.142 203.926C290.685 203.665 290.325 203.296 290.064 202.82C289.803 202.344 289.672 201.807 289.672 201.21C289.672 200.585 289.807 200.034 290.078 199.558C290.358 199.073 290.736 198.695 291.212 198.424C291.697 198.144 292.253 198.004 292.878 198.004C294.082 198.004 295.006 198.424 295.65 199.264C296.303 200.104 296.63 201.289 296.63 202.82C296.63 203.949 296.467 204.911 296.14 205.704C295.813 206.497 295.347 207.099 294.74 207.51C294.133 207.921 293.401 208.126 292.542 208.126ZM292.976 203.352C293.405 203.352 293.783 203.259 294.11 203.072C294.437 202.885 294.689 202.629 294.866 202.302C295.053 201.975 295.146 201.597 295.146 201.168C295.146 200.729 295.053 200.347 294.866 200.02C294.689 199.693 294.437 199.437 294.11 199.25C293.783 199.063 293.405 198.97 292.976 198.97C292.547 198.97 292.164 199.063 291.828 199.25C291.501 199.437 291.245 199.693 291.058 200.02C290.881 200.347 290.792 200.729 290.792 201.168C290.792 201.597 290.881 201.975 291.058 202.302C291.245 202.629 291.501 202.885 291.828 203.072C292.164 203.259 292.547 203.352 292.976 203.352Z" fill="#000A18"/>
<path d="M29.8095 250V249.132L33.3095 245.478C33.7668 245.002 34.1075 244.549 34.3315 244.12C34.5648 243.681 34.6815 243.229 34.6815 242.762C34.6815 242.193 34.5041 241.763 34.1495 241.474C33.7948 241.175 33.2815 241.026 32.6095 241.026C32.0868 241.026 31.6015 241.119 31.1535 241.306C30.7148 241.483 30.2901 241.768 29.8795 242.16L29.4595 241.25C29.8328 240.877 30.3088 240.578 30.8875 240.354C31.4661 240.121 32.0775 240.004 32.7215 240.004C33.7201 240.004 34.4901 240.237 35.0315 240.704C35.5728 241.161 35.8435 241.815 35.8435 242.664C35.8435 243.289 35.6895 243.887 35.3815 244.456C35.0828 245.016 34.6441 245.595 34.0655 246.192L30.9715 249.328V249.006H36.2635V250H29.8095ZM41.2 250.126C40.08 250.126 39.2213 249.692 38.624 248.824C38.0267 247.956 37.728 246.701 37.728 245.058C37.728 243.406 38.0267 242.151 38.624 241.292C39.2213 240.433 40.08 240.004 41.2 240.004C42.3293 240.004 43.188 240.433 43.776 241.292C44.3733 242.151 44.672 243.401 44.672 245.044C44.672 246.696 44.3733 247.956 43.776 248.824C43.1787 249.692 42.32 250.126 41.2 250.126ZM41.2 249.118C41.984 249.118 42.5673 248.787 42.95 248.124C43.3327 247.461 43.524 246.435 43.524 245.044C43.524 243.644 43.3327 242.622 42.95 241.978C42.5673 241.325 41.984 240.998 41.2 240.998C40.4253 240.998 39.842 241.325 39.45 241.978C39.0673 242.631 38.876 243.653 38.876 245.044C38.876 246.435 39.0673 247.461 39.45 248.124C39.842 248.787 40.4253 249.118 41.2 249.118Z" fill="#000A18"/>
<path d="M71.8095 250V249.132L75.3095 245.478C75.7668 245.002 76.1075 244.549 76.3315 244.12C76.5648 243.681 76.6815 243.229 76.6815 242.762C76.6815 242.193 76.5041 241.763 76.1495 241.474C75.7948 241.175 75.2815 241.026 74.6095 241.026C74.0868 241.026 73.6015 241.119 73.1535 241.306C72.7148 241.483 72.2901 241.768 71.8795 242.16L71.4595 241.25C71.8328 240.877 72.3088 240.578 72.8875 240.354C73.4661 240.121 74.0775 240.004 74.7215 240.004C75.7201 240.004 76.4901 240.237 77.0315 240.704C77.5728 241.161 77.8435 241.815 77.8435 242.664C77.8435 243.289 77.6895 243.887 77.3815 244.456C77.0828 245.016 76.6441 245.595 76.0655 246.192L72.9715 249.328V249.006H78.2635V250H71.8095ZM80.778 250V249.006H83.102V241.124H83.718L81.002 242.818V241.656L83.424 240.13H84.264V249.006H86.448V250H80.778Z" fill="#000A18"/>
<path d="M113.809 250V249.132L117.309 245.478C117.767 245.002 118.107 244.549 118.331 244.12C118.565 243.681 118.681 243.229 118.681 242.762C118.681 242.193 118.504 241.763 118.149 241.474C117.795 241.175 117.281 241.026 116.609 241.026C116.087 241.026 115.601 241.119 115.153 241.306C114.715 241.483 114.29 241.768 113.879 242.16L113.459 241.25C113.833 240.877 114.309 240.578 114.887 240.354C115.466 240.121 116.077 240.004 116.721 240.004C117.72 240.004 118.49 240.237 119.031 240.704C119.573 241.161 119.843 241.815 119.843 242.664C119.843 243.289 119.689 243.887 119.381 244.456C119.083 245.016 118.644 245.595 118.065 246.192L114.971 249.328V249.006H120.263V250H113.809ZM122.204 250V249.132L125.704 245.478C126.161 245.002 126.502 244.549 126.726 244.12C126.959 243.681 127.076 243.229 127.076 242.762C127.076 242.193 126.899 241.763 126.544 241.474C126.189 241.175 125.676 241.026 125.004 241.026C124.481 241.026 123.996 241.119 123.548 241.306C123.109 241.483 122.685 241.768 122.274 242.16L121.854 241.25C122.227 240.877 122.703 240.578 123.282 240.354C123.861 240.121 124.472 240.004 125.116 240.004C126.115 240.004 126.885 240.237 127.426 240.704C127.967 241.161 128.238 241.815 128.238 242.664C128.238 243.289 128.084 243.887 127.776 244.456C127.477 245.016 127.039 245.595 126.46 246.192L123.366 249.328V249.006H128.658V250H122.204Z" fill="#000A18"/>
<path d="M155.809 250V249.132L159.309 245.478C159.767 245.002 160.107 244.549 160.331 244.12C160.565 243.681 160.681 243.229 160.681 242.762C160.681 242.193 160.504 241.763 160.149 241.474C159.795 241.175 159.281 241.026 158.609 241.026C158.087 241.026 157.601 241.119 157.153 241.306C156.715 241.483 156.29 241.768 155.879 242.16L155.459 241.25C155.833 240.877 156.309 240.578 156.887 240.354C157.466 240.121 158.077 240.004 158.721 240.004C159.72 240.004 160.49 240.237 161.031 240.704C161.573 241.161 161.843 241.815 161.843 242.664C161.843 243.289 161.689 243.887 161.381 244.456C161.083 245.016 160.644 245.595 160.065 246.192L156.971 249.328V249.006H162.263V250H155.809ZM167.144 250.126C166.481 250.126 165.847 250.023 165.24 249.818C164.633 249.613 164.125 249.319 163.714 248.936L164.148 248.04C164.605 248.413 165.077 248.684 165.562 248.852C166.047 249.02 166.57 249.104 167.13 249.104C167.867 249.104 168.427 248.95 168.81 248.642C169.193 248.325 169.384 247.863 169.384 247.256C169.384 246.677 169.188 246.239 168.796 245.94C168.404 245.632 167.83 245.478 167.074 245.478H165.59V244.512H166.976C167.629 244.512 168.147 244.344 168.53 244.008C168.913 243.672 169.104 243.215 169.104 242.636C169.104 242.113 168.927 241.717 168.572 241.446C168.227 241.166 167.727 241.026 167.074 241.026C166.01 241.026 165.091 241.404 164.316 242.16L163.882 241.25C164.265 240.858 164.745 240.555 165.324 240.34C165.903 240.116 166.509 240.004 167.144 240.004C168.115 240.004 168.875 240.228 169.426 240.676C169.977 241.124 170.252 241.745 170.252 242.538C170.252 243.145 170.079 243.667 169.734 244.106C169.389 244.535 168.922 244.829 168.334 244.988V244.834C169.034 244.946 169.575 245.226 169.958 245.674C170.341 246.113 170.532 246.668 170.532 247.34C170.532 248.199 170.229 248.88 169.622 249.384C169.025 249.879 168.199 250.126 167.144 250.126Z" fill="#000A18"/>
<rect x="185" y="225" width="40" height="40" rx="20" fill="#0451C4"/>
<path d="M197.809 250V249.132L201.309 245.478C201.767 245.002 202.107 244.549 202.331 244.12C202.565 243.681 202.681 243.229 202.681 242.762C202.681 242.193 202.504 241.763 202.149 241.474C201.795 241.175 201.281 241.026 200.609 241.026C200.087 241.026 199.601 241.119 199.153 241.306C198.715 241.483 198.29 241.768 197.879 242.16L197.459 241.25C197.833 240.877 198.309 240.578 198.887 240.354C199.466 240.121 200.077 240.004 200.721 240.004C201.72 240.004 202.49 240.237 203.031 240.704C203.573 241.161 203.843 241.815 203.843 242.664C203.843 243.289 203.689 243.887 203.381 244.456C203.083 245.016 202.644 245.595 202.065 246.192L198.971 249.328V249.006H204.263V250H197.809ZM210.404 250V247.858H205.7V247.018L210.586 240.13H211.538V246.92H213.05V247.858H211.538V250H210.404ZM210.404 246.92V241.502H210.712L206.652 247.214V246.92H210.404Z" fill="white"/>
<path d="M239.809 250V249.132L243.309 245.478C243.767 245.002 244.107 244.549 244.331 244.12C244.565 243.681 244.681 243.229 244.681 242.762C244.681 242.193 244.504 241.763 244.149 241.474C243.795 241.175 243.281 241.026 242.609 241.026C242.087 241.026 241.601 241.119 241.153 241.306C240.715 241.483 240.29 241.768 239.879 242.16L239.459 241.25C239.833 240.877 240.309 240.578 240.887 240.354C241.466 240.121 242.077 240.004 242.721 240.004C243.72 240.004 244.49 240.237 245.031 240.704C245.573 241.161 245.843 241.815 245.843 242.664C245.843 243.289 245.689 243.887 245.381 244.456C245.083 245.016 244.644 245.595 244.065 246.192L240.971 249.328V249.006H246.263V250H239.809ZM251.382 250.126C250.953 250.126 250.533 250.079 250.122 249.986C249.711 249.893 249.324 249.757 248.96 249.58C248.605 249.403 248.293 249.188 248.022 248.936L248.456 248.04C248.913 248.404 249.38 248.675 249.856 248.852C250.332 249.02 250.841 249.104 251.382 249.104C252.091 249.104 252.647 248.913 253.048 248.53C253.449 248.147 253.65 247.643 253.65 247.018C253.65 246.374 253.459 245.847 253.076 245.436C252.693 245.025 252.161 244.82 251.48 244.82C250.995 244.82 250.561 244.918 250.178 245.114C249.795 245.301 249.464 245.595 249.184 245.996H248.344V240.13H254.196V241.11H249.464V245.044H249.156C249.408 244.652 249.753 244.353 250.192 244.148C250.64 243.933 251.144 243.826 251.704 243.826C252.339 243.826 252.885 243.957 253.342 244.218C253.809 244.479 254.168 244.843 254.42 245.31C254.672 245.777 254.798 246.323 254.798 246.948C254.798 247.573 254.658 248.129 254.378 248.614C254.107 249.09 253.715 249.463 253.202 249.734C252.698 249.995 252.091 250.126 251.382 250.126Z" fill="#000A18"/>
<path d="M281.809 250V249.132L285.309 245.478C285.767 245.002 286.107 244.549 286.331 244.12C286.565 243.681 286.681 243.229 286.681 242.762C286.681 242.193 286.504 241.763 286.149 241.474C285.795 241.175 285.281 241.026 284.609 241.026C284.087 241.026 283.601 241.119 283.153 241.306C282.715 241.483 282.29 241.768 281.879 242.16L281.459 241.25C281.833 240.877 282.309 240.578 282.887 240.354C283.466 240.121 284.077 240.004 284.721 240.004C285.72 240.004 286.49 240.237 287.031 240.704C287.573 241.161 287.843 241.815 287.843 242.664C287.843 243.289 287.689 243.887 287.381 244.456C287.083 245.016 286.644 245.595 286.065 246.192L282.971 249.328V249.006H288.263V250H281.809ZM293.522 250.126C292.327 250.126 291.403 249.706 290.75 248.866C290.106 248.017 289.784 246.831 289.784 245.31C289.784 244.171 289.947 243.21 290.274 242.426C290.601 241.633 291.067 241.031 291.674 240.62C292.281 240.209 293.013 240.004 293.872 240.004C294.385 240.004 294.903 240.111 295.426 240.326C295.949 240.531 296.378 240.821 296.714 241.194L296.294 242.09C295.939 241.726 295.552 241.46 295.132 241.292C294.712 241.115 294.287 241.026 293.858 241.026C292.906 241.026 292.173 241.367 291.66 242.048C291.156 242.72 290.904 243.733 290.904 245.086V246.388H290.778C290.843 245.856 291.002 245.399 291.254 245.016C291.515 244.624 291.856 244.325 292.276 244.12C292.696 243.915 293.163 243.812 293.676 243.812C294.273 243.812 294.801 243.943 295.258 244.204C295.715 244.465 296.075 244.834 296.336 245.31C296.597 245.777 296.728 246.313 296.728 246.92C296.728 247.536 296.593 248.087 296.322 248.572C296.051 249.057 295.673 249.44 295.188 249.72C294.703 249.991 294.147 250.126 293.522 250.126ZM293.438 249.146C293.867 249.146 294.245 249.057 294.572 248.88C294.908 248.693 295.165 248.437 295.342 248.11C295.529 247.774 295.622 247.391 295.622 246.962C295.622 246.533 295.529 246.155 295.342 245.828C295.165 245.501 294.908 245.245 294.572 245.058C294.245 244.871 293.867 244.778 293.438 244.778C293.009 244.778 292.631 244.871 292.304 245.058C291.977 245.245 291.721 245.501 291.534 245.828C291.357 246.155 291.268 246.533 291.268 246.962C291.268 247.391 291.357 247.774 291.534 248.11C291.721 248.437 291.977 248.693 292.304 248.88C292.631 249.057 293.009 249.146 293.438 249.146Z" fill="#000A18"/>
<path d="M29.8095 292V291.132L33.3095 287.478C33.7668 287.002 34.1075 286.549 34.3315 286.12C34.5648 285.681 34.6815 285.229 34.6815 284.762C34.6815 284.193 34.5041 283.763 34.1495 283.474C33.7948 283.175 33.2815 283.026 32.6095 283.026C32.0868 283.026 31.6015 283.119 31.1535 283.306C30.7148 283.483 30.2901 283.768 29.8795 284.16L29.4595 283.25C29.8328 282.877 30.3088 282.578 30.8875 282.354C31.4661 282.121 32.0775 282.004 32.7215 282.004C33.7201 282.004 34.4901 282.237 35.0315 282.704C35.5728 283.161 35.8435 283.815 35.8435 284.664C35.8435 285.289 35.6895 285.887 35.3815 286.456C35.0828 287.016 34.6441 287.595 34.0655 288.192L30.9715 291.328V291.006H36.2635V292H29.8095ZM38.582 292L43.44 282.62V283.124H37.924V282.13H44.49V282.998L39.856 292H38.582Z" fill="#000A18"/>
<path d="M71.8095 292V291.132L75.3095 287.478C75.7668 287.002 76.1075 286.549 76.3315 286.12C76.5648 285.681 76.6815 285.229 76.6815 284.762C76.6815 284.193 76.5041 283.763 76.1495 283.474C75.7948 283.175 75.2815 283.026 74.6095 283.026C74.0868 283.026 73.6015 283.119 73.1535 283.306C72.7148 283.483 72.2901 283.768 71.8795 284.16L71.4595 283.25C71.8328 282.877 72.3088 282.578 72.8875 282.354C73.4661 282.121 74.0775 282.004 74.7215 282.004C75.7201 282.004 76.4901 282.237 77.0315 282.704C77.5728 283.161 77.8435 283.815 77.8435 284.664C77.8435 285.289 77.6895 285.887 77.3815 286.456C77.0828 287.016 76.6441 287.595 76.0655 288.192L72.9715 291.328V291.006H78.2635V292H71.8095ZM83.2 292.126C82.0707 292.126 81.198 291.888 80.582 291.412C79.966 290.927 79.658 290.25 79.658 289.382C79.658 288.701 79.868 288.136 80.288 287.688C80.708 287.231 81.2633 286.955 81.954 286.862V287.072C81.3287 286.941 80.8293 286.657 80.456 286.218C80.0827 285.77 79.896 285.243 79.896 284.636C79.896 283.805 80.19 283.161 80.778 282.704C81.366 282.237 82.1733 282.004 83.2 282.004C84.236 282.004 85.048 282.237 85.636 282.704C86.224 283.161 86.518 283.805 86.518 284.636C86.518 285.243 86.3407 285.77 85.986 286.218C85.6407 286.666 85.1553 286.946 84.53 287.058V286.862C85.2113 286.955 85.7527 287.231 86.154 287.688C86.5553 288.136 86.756 288.701 86.756 289.382C86.756 290.25 86.448 290.927 85.832 291.412C85.216 291.888 84.3387 292.126 83.2 292.126ZM83.2 291.174C84.0213 291.174 84.6327 291.02 85.034 290.712C85.4447 290.404 85.65 289.937 85.65 289.312C85.65 288.696 85.4447 288.239 85.034 287.94C84.6327 287.632 84.0213 287.478 83.2 287.478C82.3787 287.478 81.7627 287.632 81.352 287.94C80.9507 288.239 80.75 288.696 80.75 289.312C80.75 289.937 80.9553 290.404 81.366 290.712C81.7767 291.02 82.388 291.174 83.2 291.174ZM83.2 286.526C83.9093 286.526 84.4507 286.367 84.824 286.05C85.2067 285.733 85.398 285.294 85.398 284.734C85.398 284.174 85.2067 283.74 84.824 283.432C84.4507 283.115 83.9093 282.956 83.2 282.956C82.4907 282.956 81.9447 283.115 81.562 283.432C81.1887 283.74 81.002 284.174 81.002 284.734C81.002 285.294 81.1887 285.733 81.562 286.05C81.9447 286.367 82.4907 286.526 83.2 286.526Z" fill="#000A18"/>
<path d="M113.809 292V291.132L117.309 287.478C117.767 287.002 118.107 286.549 118.331 286.12C118.565 285.681 118.681 285.229 118.681 284.762C118.681 284.193 118.504 283.763 118.149 283.474C117.795 283.175 117.281 283.026 116.609 283.026C116.087 283.026 115.601 283.119 115.153 283.306C114.715 283.483 114.29 283.768 113.879 284.16L113.459 283.25C113.833 282.877 114.309 282.578 114.887 282.354C115.466 282.121 116.077 282.004 116.721 282.004C117.72 282.004 118.49 282.237 119.031 282.704C119.573 283.161 119.843 283.815 119.843 284.664C119.843 285.289 119.689 285.887 119.381 286.456C119.083 287.016 118.644 287.595 118.065 288.192L114.971 291.328V291.006H120.263V292H113.809ZM124.542 292.126C124.029 292.126 123.511 292.019 122.988 291.804C122.465 291.58 122.031 291.291 121.686 290.936L122.12 290.026C122.475 290.39 122.862 290.661 123.282 290.838C123.702 291.015 124.127 291.104 124.556 291.104C125.499 291.104 126.222 290.768 126.726 290.096C127.239 289.415 127.496 288.397 127.496 287.044V285.742H127.636C127.58 286.265 127.417 286.722 127.146 287.114C126.885 287.506 126.544 287.805 126.124 288.01C125.713 288.215 125.251 288.318 124.738 288.318C124.141 288.318 123.609 288.187 123.142 287.926C122.685 287.665 122.325 287.296 122.064 286.82C121.803 286.344 121.672 285.807 121.672 285.21C121.672 284.585 121.807 284.034 122.078 283.558C122.358 283.073 122.736 282.695 123.212 282.424C123.697 282.144 124.253 282.004 124.878 282.004C126.082 282.004 127.006 282.424 127.65 283.264C128.303 284.104 128.63 285.289 128.63 286.82C128.63 287.949 128.467 288.911 128.14 289.704C127.813 290.497 127.347 291.099 126.74 291.51C126.133 291.921 125.401 292.126 124.542 292.126ZM124.976 287.352C125.405 287.352 125.783 287.259 126.11 287.072C126.437 286.885 126.689 286.629 126.866 286.302C127.053 285.975 127.146 285.597 127.146 285.168C127.146 284.729 127.053 284.347 126.866 284.02C126.689 283.693 126.437 283.437 126.11 283.25C125.783 283.063 125.405 282.97 124.976 282.97C124.547 282.97 124.164 283.063 123.828 283.25C123.501 283.437 123.245 283.693 123.058 284.02C122.881 284.347 122.792 284.729 122.792 285.168C122.792 285.597 122.881 285.975 123.058 286.302C123.245 286.629 123.501 286.885 123.828 287.072C124.164 287.259 124.547 287.352 124.976 287.352Z" fill="#000A18"/>
<path d="M158.749 292.126C158.087 292.126 157.452 292.023 156.845 291.818C156.239 291.613 155.73 291.319 155.319 290.936L155.753 290.04C156.211 290.413 156.682 290.684 157.167 290.852C157.653 291.02 158.175 291.104 158.735 291.104C159.473 291.104 160.033 290.95 160.415 290.642C160.798 290.325 160.989 289.863 160.989 289.256C160.989 288.677 160.793 288.239 160.401 287.94C160.009 287.632 159.435 287.478 158.679 287.478H157.195V286.512H158.581C159.235 286.512 159.753 286.344 160.135 286.008C160.518 285.672 160.709 285.215 160.709 284.636C160.709 284.113 160.532 283.717 160.177 283.446C159.832 283.166 159.333 283.026 158.679 283.026C157.615 283.026 156.696 283.404 155.921 284.16L155.487 283.25C155.87 282.858 156.351 282.555 156.929 282.34C157.508 282.116 158.115 282.004 158.749 282.004C159.72 282.004 160.481 282.228 161.031 282.676C161.582 283.124 161.857 283.745 161.857 284.538C161.857 285.145 161.685 285.667 161.339 286.106C160.994 286.535 160.527 286.829 159.939 286.988V286.834C160.639 286.946 161.181 287.226 161.563 287.674C161.946 288.113 162.137 288.668 162.137 289.34C162.137 290.199 161.834 290.88 161.227 291.384C160.63 291.879 159.804 292.126 158.749 292.126ZM167.2 292.126C166.08 292.126 165.221 291.692 164.624 290.824C164.027 289.956 163.728 288.701 163.728 287.058C163.728 285.406 164.027 284.151 164.624 283.292C165.221 282.433 166.08 282.004 167.2 282.004C168.329 282.004 169.188 282.433 169.776 283.292C170.373 284.151 170.672 285.401 170.672 287.044C170.672 288.696 170.373 289.956 169.776 290.824C169.179 291.692 168.32 292.126 167.2 292.126ZM167.2 291.118C167.984 291.118 168.567 290.787 168.95 290.124C169.333 289.461 169.524 288.435 169.524 287.044C169.524 285.644 169.333 284.622 168.95 283.978C168.567 283.325 167.984 282.998 167.2 282.998C166.425 282.998 165.842 283.325 165.45 283.978C165.067 284.631 164.876 285.653 164.876 287.044C164.876 288.435 165.067 289.461 165.45 290.124C165.842 290.787 166.425 291.118 167.2 291.118Z" fill="#000A18"/>
<path d="M202.575 292.126C201.912 292.126 201.277 292.023 200.671 291.818C200.064 291.613 199.555 291.319 199.145 290.936L199.579 290.04C200.036 290.413 200.507 290.684 200.993 290.852C201.478 291.02 202.001 291.104 202.561 291.104C203.298 291.104 203.858 290.95 204.241 290.642C204.623 290.325 204.815 289.863 204.815 289.256C204.815 288.677 204.619 288.239 204.227 287.94C203.835 287.632 203.261 287.478 202.505 287.478H201.021V286.512H202.407C203.06 286.512 203.578 286.344 203.961 286.008C204.343 285.672 204.535 285.215 204.535 284.636C204.535 284.113 204.357 283.717 204.003 283.446C203.657 283.166 203.158 283.026 202.505 283.026C201.441 283.026 200.521 283.404 199.747 284.16L199.313 283.25C199.695 282.858 200.176 282.555 200.755 282.34C201.333 282.116 201.94 282.004 202.575 282.004C203.545 282.004 204.306 282.228 204.857 282.676C205.407 283.124 205.683 283.745 205.683 284.538C205.683 285.145 205.51 285.667 205.165 286.106C204.819 286.535 204.353 286.829 203.765 286.988V286.834C204.465 286.946 205.006 287.226 205.389 287.674C205.771 288.113 205.963 288.668 205.963 289.34C205.963 290.199 205.659 290.88 205.053 291.384C204.455 291.879 203.629 292.126 202.575 292.126ZM208.603 292V291.006H210.927V283.124H211.543L208.827 284.818V283.656L211.249 282.13H212.089V291.006H214.273V292H208.603Z" fill="#000A18"/>
<path d="M12 7H314V5H12V7ZM317 10V312H319V10H317ZM314 315H12V317H314V315ZM9 312V10H7V312H9ZM12 315C10.3431 315 9 313.657 9 312H7C7 314.761 9.23857 317 12 317V315ZM317 312C317 313.657 315.657 315 314 315V317C316.761 317 319 314.761 319 312H317ZM314 7C315.657 7 317 8.34314 317 10H319C319 7.23858 316.761 5 314 5V7ZM12 5C9.23858 5 7 7.23857 7 10H9C9 8.34314 10.3431 7 12 7V5Z" fill="#E5E6E8"/>
</g>
<defs>
<filter id="filter0_d_1_651" x="0" y="0" width="326" height="326" filterUnits="userSpaceOnUse" color-interpolation-filters="sRGB">
<feFlood flood-opacity="0" result="BackgroundImageFix"/>
<feColorMatrix in="SourceAlpha" type="matrix" values="0 0 0 0 0 0 0 0 0 0 0 0 0 0 0 0 0 0 127 0" result="hardAlpha"/>
<feOffset dy="2"/>
<feGaussianBlur stdDeviation="4"/>
<feColorMatrix type="matrix" values="0 0 0 0 0 0 0 0 0 0.0392157 0 0 0 0 0.0941176 0 0 0 0.08 0"/>
<feBlend mode="normal" in2="BackgroundImageFix" result="effect1_dropShadow_1_651"/>
<feBlend mode="normal" in="SourceGraphic" in2="effect1_dropShadow_1_651" result="shape"/>
</filter>
</defs>
</svg>
