<svg width="157" height="48" viewBox="0 0 157 48" fill="none" xmlns="http://www.w3.org/2000/svg">
<path d="M26.4486 8.21989L28.3001 6.39643C31.9358 2.81563 37.8548 2.727 41.5115 6.28717C42.8971 7.63918 43.8179 9.38471 44.1445 11.2786C44.4711 13.1724 44.1871 15.1195 43.3325 16.8462C42.9225 17.6711 42.7845 18.6014 42.9373 19.5073C43.0904 20.4133 43.5267 21.2495 44.1857 21.8993C45.3975 20.7031 46.3578 19.2835 47.0123 17.7216C47.6667 16.1597 48.0024 14.4862 48 12.7965C47.9974 11.1069 47.6572 9.43427 46.9982 7.87424C46.3392 6.31418 45.3746 4.89728 44.1595 3.7045C39.0463 -1.30304 30.7467 -1.20339 25.6478 3.81821L8.00046 21.1984L6.54969 19.7696C2.8523 16.128 2.82873 10.1756 6.59135 6.59878C7.98411 5.27888 9.75851 4.41726 11.6696 4.13285C13.5808 3.84844 15.5344 4.15526 17.261 5.01095C18.049 5.40868 18.9445 5.55096 19.8196 5.41748C20.6946 5.28399 21.5045 4.88157 22.1335 4.26769L22.1785 4.22361C22.1925 4.20992 22.2035 4.19362 22.2111 4.17566C22.2187 4.15772 22.2226 4.13847 22.2226 4.11904C22.2226 4.0996 22.2187 4.08035 22.2111 4.06241C22.2035 4.04448 22.1925 4.02818 22.1785 4.01446C19.7495 1.68235 16.4947 0.372413 13.1026 0.361822C9.71046 0.351234 6.4472 1.64082 4.00334 3.95772C-1.261 8.96292 -1.24219 17.2861 3.93192 22.382L21.574 39.7575L19.7 41.6033C16.0642 45.1841 10.145 45.2727 6.48851 41.7125C5.10294 40.3606 4.18218 38.615 3.85553 36.7212C3.5289 34.8274 3.81277 32.8803 4.66731 31.1535C5.07728 30.3286 5.21545 29.3983 5.06254 28.4925C4.90961 27.5865 4.47321 26.7502 3.81432 26.1005C2.60264 27.2967 1.64213 28.7162 0.987658 30.278C0.333185 31.84 -0.00241875 33.5134 1.31224e-05 35.2032C0.00244501 36.8928 0.342864 38.5655 1.00183 40.1254C1.6608 41.6856 2.6254 43.1025 3.84051 44.2952C8.95344 49.303 17.2534 49.2036 22.3522 44.1817L40.0224 26.7783L41.4787 28.2125C45.1144 31.7934 45.2044 37.6229 41.5896 41.2241C40.2169 42.589 38.4445 43.4957 36.5217 43.8176C34.5988 44.1393 32.6219 43.8596 30.8686 43.0178C30.0308 42.6138 29.0857 42.4776 28.1656 42.6286C27.2454 42.7794 26.396 43.2096 25.7363 43.8591C26.951 45.0525 28.3922 45.9986 29.978 46.6432C31.5639 47.2877 33.263 47.6183 34.9788 47.616C36.6943 47.6134 38.3926 47.2781 39.9765 46.6291C41.5606 45.9801 42.9992 45.03 44.2102 43.8333C49.2948 38.7976 49.1936 30.6231 44.095 25.6015L26.4486 8.21989ZM24.2084 37.1617L10.6356 23.794L23.8132 10.8157L37.3861 24.1834L24.2084 37.1617Z" fill="#F5B133"/>
<path d="M61.886 21.198C60.866 21.198 59.912 21.072 59.024 20.82C58.136 20.568 57.38 20.22 56.756 19.776L57.584 17.58C57.992 17.856 58.424 18.09 58.88 18.282C59.336 18.474 59.816 18.624 60.32 18.732C60.824 18.828 61.352 18.876 61.904 18.876C62.768 18.876 63.38 18.744 63.74 18.48C64.112 18.216 64.298 17.88 64.298 17.472C64.298 17.1 64.172 16.818 63.92 16.626C63.68 16.422 63.236 16.248 62.588 16.104L60.464 15.672C59.3 15.432 58.43 15.024 57.854 14.448C57.278 13.872 56.99 13.104 56.99 12.144C56.99 11.328 57.206 10.62 57.638 10.02C58.07 9.42 58.676 8.952 59.456 8.616C60.248 8.28 61.172 8.112 62.228 8.112C63.128 8.112 63.968 8.238 64.748 8.49C65.528 8.742 66.17 9.102 66.674 9.57L65.846 11.622C65.354 11.226 64.802 10.932 64.19 10.74C63.59 10.536 62.918 10.434 62.174 10.434C61.394 10.434 60.794 10.572 60.374 10.848C59.966 11.124 59.762 11.502 59.762 11.982C59.762 12.342 59.888 12.636 60.14 12.864C60.392 13.08 60.836 13.254 61.472 13.386L63.56 13.8C64.748 14.04 65.63 14.442 66.206 15.006C66.782 15.57 67.07 16.32 67.07 17.256C67.07 18.048 66.854 18.738 66.422 19.326C66.002 19.914 65.402 20.376 64.622 20.712C63.854 21.036 62.942 21.198 61.886 21.198ZM71.4515 21L67.5095 11.874H70.3715L72.9815 18.498H72.3875L75.0875 11.874H77.7695L73.7915 21H71.4515ZM82.0897 21.198C81.2977 21.198 80.6017 21.006 80.0017 20.622C79.4017 20.238 78.9337 19.692 78.5977 18.984C78.2617 18.276 78.0937 17.424 78.0937 16.428C78.0937 15.444 78.2617 14.598 78.5977 13.89C78.9337 13.182 79.4017 12.642 80.0017 12.27C80.6017 11.886 81.2977 11.694 82.0897 11.694C82.8217 11.694 83.4757 11.874 84.0517 12.234C84.6397 12.582 85.0237 13.056 85.2037 13.656H85.0057L85.2217 11.874H87.8317C87.7957 12.27 87.7597 12.672 87.7237 13.08C87.6997 13.476 87.6877 13.866 87.6877 14.25V21H84.9877L84.9697 19.29H85.1857C84.9937 19.866 84.6097 20.328 84.0337 20.676C83.4577 21.024 82.8097 21.198 82.0897 21.198ZM82.9177 19.146C83.5417 19.146 84.0457 18.924 84.4297 18.48C84.8137 18.036 85.0057 17.352 85.0057 16.428C85.0057 15.504 84.8137 14.826 84.4297 14.394C84.0457 13.962 83.5417 13.746 82.9177 13.746C82.2937 13.746 81.7897 13.962 81.4057 14.394C81.0217 14.826 80.8297 15.504 80.8297 16.428C80.8297 17.352 81.0157 18.036 81.3877 18.48C81.7717 18.924 82.2817 19.146 82.9177 19.146ZM89.8988 21V14.286C89.8988 13.89 89.8868 13.488 89.8628 13.08C89.8508 12.672 89.8208 12.27 89.7728 11.874H92.3828L92.6888 14.538H92.2748C92.3948 13.89 92.5868 13.356 92.8508 12.936C93.1268 12.516 93.4628 12.204 93.8588 12C94.2668 11.796 94.7288 11.694 95.2448 11.694C95.4728 11.694 95.6528 11.706 95.7848 11.73C95.9168 11.742 96.0488 11.772 96.1808 11.82L96.1628 14.214C95.9108 14.106 95.6948 14.04 95.5148 14.016C95.3468 13.98 95.1308 13.962 94.8668 13.962C94.3628 13.962 93.9428 14.058 93.6068 14.25C93.2828 14.442 93.0368 14.724 92.8688 15.096C92.7128 15.468 92.6348 15.918 92.6348 16.446V21H89.8988ZM97.3172 21V14.25C97.3172 13.866 97.3052 13.476 97.2812 13.08C97.2572 12.672 97.2212 12.27 97.1732 11.874H99.7832L99.9812 13.566H99.7652C100.065 12.966 100.491 12.504 101.043 12.18C101.595 11.856 102.237 11.694 102.969 11.694C104.037 11.694 104.835 12.006 105.363 12.63C105.903 13.242 106.173 14.196 106.173 15.492V21H103.455V15.618C103.455 14.958 103.335 14.49 103.095 14.214C102.855 13.938 102.495 13.8 102.015 13.8C101.415 13.8 100.935 13.992 100.575 14.376C100.215 14.748 100.035 15.252 100.035 15.888V21H97.3172ZM108.356 21V11.874H111.074V21H108.356ZM108.248 10.38V7.842H111.164V10.38H108.248ZM113.296 21V14.25C113.296 13.866 113.284 13.476 113.26 13.08C113.236 12.672 113.2 12.27 113.152 11.874H115.762L115.96 13.566H115.744C116.008 12.99 116.398 12.534 116.914 12.198C117.43 11.862 118.042 11.694 118.75 11.694C119.446 11.694 120.028 11.862 120.496 12.198C120.976 12.522 121.318 13.032 121.522 13.728H121.234C121.498 13.104 121.918 12.612 122.494 12.252C123.07 11.88 123.724 11.694 124.456 11.694C125.488 11.694 126.256 12 126.76 12.612C127.264 13.224 127.516 14.184 127.516 15.492V21H124.798V15.582C124.798 14.946 124.696 14.49 124.492 14.214C124.288 13.938 123.958 13.8 123.502 13.8C122.962 13.8 122.536 13.992 122.224 14.376C121.912 14.76 121.756 15.288 121.756 15.96V21H119.038V15.582C119.038 14.946 118.936 14.49 118.732 14.214C118.528 13.938 118.198 13.8 117.742 13.8C117.202 13.8 116.776 13.992 116.464 14.376C116.164 14.76 116.014 15.288 116.014 15.96V21H113.296ZM57.296 41V28.31H63.218C64.646 28.31 65.726 28.658 66.458 29.354C67.202 30.038 67.574 30.98 67.574 32.18C67.574 33.368 67.202 34.316 66.458 35.024C65.726 35.72 64.646 36.068 63.218 36.068H60.104V41H57.296ZM60.104 33.89H62.858C63.53 33.89 64.028 33.74 64.352 33.44C64.688 33.14 64.856 32.72 64.856 32.18C64.856 31.64 64.688 31.226 64.352 30.938C64.028 30.638 63.53 30.488 62.858 30.488H60.104V33.89ZM72.4163 41.198C71.2763 41.198 70.4303 40.886 69.8783 40.262C69.3263 39.626 69.0503 38.666 69.0503 37.382V31.874H71.7683V37.382C71.7683 37.958 71.8823 38.384 72.1103 38.66C72.3503 38.936 72.7163 39.074 73.2083 39.074C73.7483 39.074 74.1923 38.888 74.5403 38.516C74.9003 38.132 75.0803 37.622 75.0803 36.986V31.874H77.7983V41H75.1523V39.254H75.4043C75.1283 39.866 74.7323 40.346 74.2163 40.694C73.7123 41.03 73.1123 41.198 72.4163 41.198ZM83.6199 41.198C82.8279 41.198 82.1259 41.006 81.5139 40.622C80.9139 40.238 80.4399 39.692 80.0919 38.984C79.7559 38.276 79.5879 37.424 79.5879 36.428C79.5879 35.444 79.7559 34.598 80.0919 33.89C80.4279 33.182 80.9019 32.642 81.5139 32.27C82.1259 31.886 82.8279 31.694 83.6199 31.694C84.3399 31.694 84.9819 31.868 85.5459 32.216C86.1219 32.552 86.5059 33.008 86.6979 33.584H86.4639V27.752H89.1819V41H86.4999V39.218H86.7339C86.5419 39.818 86.1579 40.298 85.5819 40.658C85.0059 41.018 84.3519 41.198 83.6199 41.198ZM84.4299 39.146C85.0539 39.146 85.5579 38.924 85.9419 38.48C86.3259 38.036 86.5179 37.352 86.5179 36.428C86.5179 35.504 86.3259 34.826 85.9419 34.394C85.5579 33.962 85.0539 33.746 84.4299 33.746C83.8059 33.746 83.2959 33.962 82.8999 34.394C82.5159 34.826 82.3239 35.504 82.3239 36.428C82.3239 37.352 82.5159 38.036 82.8999 38.48C83.2959 38.924 83.8059 39.146 84.4299 39.146ZM94.7229 41.198C93.5829 41.198 92.7369 40.886 92.1849 40.262C91.6329 39.626 91.3569 38.666 91.3569 37.382V31.874H94.0749V37.382C94.0749 37.958 94.1889 38.384 94.4169 38.66C94.6569 38.936 95.0229 39.074 95.5149 39.074C96.0549 39.074 96.4989 38.888 96.8469 38.516C97.2069 38.132 97.3869 37.622 97.3869 36.986V31.874H100.105V41H97.4589V39.254H97.7109C97.4349 39.866 97.0389 40.346 96.5229 40.694C96.0189 41.03 95.4189 41.198 94.7229 41.198ZM106.737 41.198C105.765 41.198 104.913 41.006 104.181 40.622C103.449 40.238 102.885 39.686 102.489 38.966C102.093 38.246 101.895 37.394 101.895 36.41C101.895 35.414 102.093 34.568 102.489 33.872C102.897 33.164 103.461 32.624 104.181 32.252C104.913 31.88 105.765 31.694 106.737 31.694C107.349 31.694 107.943 31.784 108.519 31.964C109.107 32.144 109.587 32.396 109.959 32.72L109.167 34.592C108.867 34.316 108.519 34.112 108.123 33.98C107.739 33.836 107.367 33.764 107.007 33.764C106.275 33.764 105.705 33.992 105.297 34.448C104.889 34.904 104.685 35.564 104.685 36.428C104.685 37.292 104.889 37.952 105.297 38.408C105.705 38.864 106.275 39.092 107.007 39.092C107.355 39.092 107.721 39.026 108.105 38.894C108.501 38.762 108.855 38.564 109.167 38.3L109.959 40.154C109.575 40.478 109.089 40.736 108.501 40.928C107.925 41.108 107.337 41.198 106.737 41.198ZM111.503 41V27.752H114.221V33.584H113.951C114.239 32.972 114.665 32.504 115.229 32.18C115.793 31.856 116.441 31.694 117.173 31.694C118.241 31.694 119.039 32.006 119.567 32.63C120.095 33.242 120.359 34.184 120.359 35.456V41H117.641V35.582C117.641 34.946 117.521 34.49 117.281 34.214C117.053 33.938 116.693 33.8 116.201 33.8C115.601 33.8 115.121 33.986 114.761 34.358C114.401 34.73 114.221 35.228 114.221 35.852V41H111.503ZM127.132 41.198C125.548 41.198 124.312 40.772 123.424 39.92C122.536 39.068 122.092 37.91 122.092 36.446C122.092 35.498 122.278 34.67 122.65 33.962C123.034 33.254 123.562 32.702 124.234 32.306C124.918 31.898 125.716 31.694 126.628 31.694C127.528 31.694 128.278 31.886 128.878 32.27C129.49 32.654 129.946 33.194 130.246 33.89C130.558 34.574 130.714 35.372 130.714 36.284V36.914H124.324V35.564H128.734L128.428 35.816C128.428 35.06 128.272 34.49 127.96 34.106C127.66 33.71 127.222 33.512 126.646 33.512C126.01 33.512 125.518 33.746 125.17 34.214C124.834 34.682 124.666 35.354 124.666 36.23V36.518C124.666 37.406 124.882 38.066 125.314 38.498C125.758 38.93 126.394 39.146 127.222 39.146C127.714 39.146 128.176 39.086 128.608 38.966C129.052 38.834 129.472 38.63 129.868 38.354L130.624 40.154C130.168 40.49 129.64 40.748 129.04 40.928C128.452 41.108 127.816 41.198 127.132 41.198ZM132.42 41V34.286C132.42 33.89 132.408 33.488 132.384 33.08C132.372 32.672 132.342 32.27 132.294 31.874H134.904L135.21 34.538H134.796C134.916 33.89 135.108 33.356 135.372 32.936C135.648 32.516 135.984 32.204 136.38 32C136.788 31.796 137.25 31.694 137.766 31.694C137.994 31.694 138.174 31.706 138.306 31.73C138.438 31.742 138.57 31.772 138.702 31.82L138.684 34.214C138.432 34.106 138.216 34.04 138.036 34.016C137.868 33.98 137.652 33.962 137.388 33.962C136.884 33.962 136.464 34.058 136.128 34.25C135.804 34.442 135.558 34.724 135.39 35.096C135.234 35.468 135.156 35.918 135.156 36.446V41H132.42ZM139.821 41V34.286C139.821 33.89 139.809 33.488 139.785 33.08C139.773 32.672 139.743 32.27 139.695 31.874H142.305L142.611 34.538H142.197C142.317 33.89 142.509 33.356 142.773 32.936C143.049 32.516 143.385 32.204 143.781 32C144.189 31.796 144.651 31.694 145.167 31.694C145.395 31.694 145.575 31.706 145.707 31.73C145.839 31.742 145.971 31.772 146.103 31.82L146.085 34.214C145.833 34.106 145.617 34.04 145.437 34.016C145.269 33.98 145.053 33.962 144.789 33.962C144.285 33.962 143.865 34.058 143.529 34.25C143.205 34.442 142.959 34.724 142.791 35.096C142.635 35.468 142.557 35.918 142.557 36.446V41H139.821ZM147.694 45.086L147.064 42.962C147.628 42.854 148.102 42.728 148.486 42.584C148.882 42.44 149.206 42.248 149.458 42.008C149.71 41.78 149.914 41.48 150.07 41.108L150.52 40.046L150.448 41.09L146.488 31.874H149.35L151.96 38.48H151.402L154.048 31.874H156.748L152.626 41.36C152.326 42.044 152.002 42.608 151.654 43.052C151.318 43.508 150.952 43.868 150.556 44.132C150.16 44.396 149.722 44.6 149.242 44.744C148.774 44.888 148.258 45.002 147.694 45.086Z" fill="#000A18"/>
</svg>
