<svg width="21" height="21" viewBox="0 0 21 21" fill="none" xmlns="http://www.w3.org/2000/svg">
<path fill-rule="evenodd" clip-rule="evenodd" d="M13.096 3.90381C15.6344 6.44221 15.6344 10.5578 13.096 13.0962C10.5576 15.6346 6.44203 15.6346 3.90362 13.0962C1.36521 10.5578 1.36521 6.44221 3.90362 3.90381C6.44203 1.3654 10.5576 1.3654 13.096 3.90381ZM15.1782 13.7595C17.8123 10.4234 17.5896 5.56902 14.5102 2.48959C11.1908 -0.829864 5.80887 -0.829864 2.48941 2.48959C-0.830047 5.80905 -0.830047 11.191 2.48941 14.5104C5.57045 17.5914 10.4283 17.8127 13.7646 15.1743L18.8526 20.2623L20.2668 18.8481L15.1782 13.7595Z" fill="#000A18"/>
</svg>
